<?xml version="1.0" encoding="UTF-8"?>
<svg width="111px" height="25px" viewBox="0 0 111 25" version="1.1" xmlns="http://www.w3.org/2000/svg" xmlns:xlink="http://www.w3.org/1999/xlink">
    <title>logo-1-black</title>
    <g id="logo-1-black" stroke="none" stroke-width="1" fill="none" fill-rule="evenodd">
        <g id="1" transform="translate(0, 0)" fill="#000000" fill-rule="nonzero">
            <path d="M11.4725988,0 L11.4725988,3.63869738 C9.12242838,3.63869738 6.8684908,4.57230152 5.20671055,6.23411602 C3.54489605,7.89589627 2.61130048,10.1498339 2.61130048,12.5 C2.61130048,14.8501747 3.54489605,17.1040267 5.20671055,18.7658412 C6.8684908,20.4276557 9.12242838,21.3613026 11.4725988,21.3613026 L11.4725988,25 L0,25 L0,0 L11.4725988,0 Z M11.4725988,3.63869738 C13.8227692,3.63869738 16.0767068,4.57230152 17.7385213,6.23411602 C19.4003358,7.89589627 20.3338971,10.1498339 20.3338971,12.5000043 C20.3338971,14.8501747 19.4003358,17.1040267 17.7385213,18.7658412 C16.0767068,20.4276557 13.8227692,21.3613026 11.4725988,21.3613026 L11.4725988,3.63869738 Z M26.7722511,5.86473258 L29.3407434,5.86473258 L29.3407434,18.2363037 L26.7722511,18.2363037 L26.7722511,5.86473258 Z M30.779099,13.9982914 C30.779099,13.1082233 31.0433969,12.2381893 31.538431,11.4984635 C32.0334651,10.7587378 32.7369751,10.1826249 33.5598344,9.84315588 C34.3826937,9.50377243 35.2877448,9.41627246 36.1603472,9.5917861 C37.0329496,9.76729974 37.8338055,10.1979503 38.4613738,10.8291144 C39.0889421,11.4603642 39.515055,12.2636174 39.6856028,13.1372472 C39.8560651,14.0108771 39.7634282,14.9154144 39.4192502,15.7363045 C39.0750722,16.5571091 38.4950211,17.2573657 37.7524699,17.7481189 C37.0099188,18.2389578 36.1383438,18.4982043 35.2482756,18.4931529 C34.6579505,18.4977762 34.0725911,18.3845057 33.5266152,18.1598482 C32.9806394,17.9352764 32.4849204,17.6039409 32.0686534,17.1853623 C31.6523864,16.766698 31.3239619,16.2690955 31.1024722,15.7218354 C30.8810682,15.1745753 30.7711367,14.5886166 30.779099,13.9982914 Z M37.217453,13.9982914 C37.2073503,13.6145587 37.0843195,13.2422985 36.8637716,12.9281719 C36.6432238,12.6139597 36.3350047,12.3717509 35.9774706,12.2318537 C35.620022,12.0919565 35.2292688,12.0605353 34.8540977,12.141614 C34.4788409,12.2226071 34.1358616,12.4124187 33.8679679,12.6874186 C33.6000741,12.9623329 33.4191666,13.3101067 33.3479338,13.6873326 C33.2767009,14.0645585 33.3182249,14.45437 33.4673687,14.8080514 C33.6165125,15.1617328 33.866598,15.4637019 34.1864609,15.675945 C34.5062382,15.8882737 34.8814949,16.0015442 35.2653989,16.0017154 C35.5267858,16.0068524 35.7863747,15.9579654 36.0279842,15.8581367 C36.2695937,15.7583936 36.4880012,15.6098491 36.6695936,15.4218355 C36.851186,15.2338218 36.992025,15.0102774 37.0833777,14.7654145 C37.1747304,14.5204659 37.214542,14.2593359 37.2003297,13.9982914 L37.217453,13.9982914 Z M49.8801199,9.76027919 L49.8801199,17.8167833 C49.8801199,20.6592481 47.6540933,21.8664394 45.4023817,21.8664394 C44.6081183,21.9315935 43.8114576,21.7738025 43.1021256,21.4107889 C42.3927081,21.0477753 41.7987014,20.4939228 41.3869721,19.8116456 L43.5530673,18.561646 C43.7285809,18.9155843 44.007776,19.2075362 44.3534951,19.3987177 C44.6992141,19.5898991 45.0949332,19.6712347 45.4879981,19.6318512 C45.7384261,19.6626731 45.9925356,19.6378443 46.2321759,19.5590772 C46.4719019,19.4802245 46.6911655,19.3494882 46.8743846,19.1760294 C47.0576894,19.0025705 47.2003263,18.7908412 47.2921927,18.5558241 C47.3840591,18.3208927 47.4228433,18.0684955 47.4058057,17.8167833 L47.4058057,17.037674 C47.1069188,17.4000882 46.7276381,17.6877594 46.2981862,17.877999 C45.8686487,18.0682387 45.400755,18.1557386 44.9314915,18.133564 C43.7961323,18.133564 42.7073484,17.6825368 41.9045233,16.8797117 C41.1016983,16.0769722 40.650671,14.9881027 40.650671,13.8527435 C40.650671,12.7173843 41.1016983,11.6286005 41.9045233,10.8257754 C42.7073484,10.0229503 43.7961323,9.57192309 44.9314915,9.57192309 C45.400755,9.54974844 45.8686487,9.63724841 46.2981862,9.82748807 C46.7276381,10.0177277 47.1069188,10.3053989 47.4058057,10.6678131 L47.4058057,9.81164904 L49.8801199,9.76027919 Z M47.4058057,13.8270651 C47.4228433,13.4174697 47.3170215,13.012076 47.1018674,12.6631035 C46.8867134,12.3141311 46.5721587,12.0375044 46.1984431,11.8687545 C45.8248131,11.7000046 45.4093166,11.6469224 45.0052072,11.7162717 C44.6011834,11.785621 44.2270396,11.9742339 43.9310637,12.2578811 C43.6350878,12.5415282 43.4307214,12.9072815 43.3442489,13.3080519 C43.2577763,13.7088224 43.2931359,14.1262024 43.4457899,14.5066817 C43.5985296,14.887161 43.8615432,15.2132739 44.2010123,15.4430683 C44.5405669,15.6728628 44.9410805,15.7958936 45.3510119,15.796236 C45.6185631,15.8154997 45.8871418,15.7784278 46.1393678,15.6875032 C46.3916793,15.5964929 46.6221587,15.4535992 46.8157374,15.2679828 C47.0094017,15.082452 47.1619702,14.8583083 47.2635968,14.6101063 C47.3652235,14.3619043 47.4136824,14.0951236 47.4058057,13.8270651 Z M51.3270372,13.9982914 C51.3270372,13.1089082 51.590907,12.2395592 52.0851705,11.5001759 C52.579434,10.7607925 53.2819167,10.1846797 54.1037486,9.84478259 C54.9255805,9.50479983 55.8297754,9.41627246 56.7019498,9.59041624 C57.5741241,9.76456001 58.37498,10.1934982 59.0033188,10.8229501 C59.631572,11.4524875 60.0589692,12.2541996 60.2314006,13.1266308 C60.4039177,13.9991476 60.313678,14.9031713 59.9721541,15.7243182 C59.6306303,16.5455508 59.0531476,17.2469205 58.3129081,17.7398141 C57.572583,18.2327078 56.7027203,18.4948652 55.8133371,18.4931529 C55.2218989,18.4988892 54.6351696,18.3864749 54.0877383,18.1625023 C53.540307,17.9385298 53.0430469,17.6075368 52.6252388,17.1888725 C52.2073451,16.7702083 51.8772939,16.2723489 51.6543487,15.7244895 C51.4314892,15.1766301 51.3201879,14.5897296 51.3270372,13.9982914 Z M57.7653912,13.9982914 C57.7552884,13.6142162 57.6320008,13.2416136 57.4111105,12.9272302 C57.1902201,12.6129323 56.8814018,12.3707235 56.5234395,12.2310831 C56.1654773,12.0914428 55.774296,12.0605353 55.398868,12.1422989 C55.0234401,12.223977 54.6804607,12.4147303 54.4129094,12.6905008 C54.1453582,12.9662712 53.9651356,13.3149013 53.8949302,13.6926409 C53.8246391,14.0703805 53.8673617,14.4604488 54.0177897,14.813959 C54.1682178,15.1675547 54.4196731,15.4688389 54.7406491,15.6801402 C55.0615394,15.8913559 55.4376522,16.0032565 55.8218987,16.0017154 C56.0832856,16.0068524 56.3428745,15.9579654 56.584484,15.8581367 C56.8260936,15.7583936 57.044501,15.6098491 57.2260934,15.4218355 C57.4076858,15.2338218 57.5485248,15.0102774 57.6398775,14.7654145 C57.7312302,14.5204659 57.7710419,14.2593359 57.7568295,13.9982914 L57.7653912,13.9982914 Z M61.489705,7.49144435 C61.489705,7.19007459 61.5790885,6.89538291 61.7465542,6.64478368 C61.9140199,6.39415021 62.1520335,6.19882493 62.4304581,6.08347394 C62.7089683,5.96813152 63.0153894,5.93795173 63.3110228,5.99675308 C63.6065707,6.05555443 63.8781459,6.20069993 64.0913308,6.41383342 C64.30443,6.62697547 64.4495498,6.89855072 64.5083683,7.19409856 C64.5671868,7.48973202 64.5369642,7.79615315 64.4216389,8.07466333 C64.3063136,8.35308789 64.1109369,8.59110151 63.8603377,8.75856721 C63.6097385,8.9260329 63.3151324,9.01541643 63.0136771,9.01541643 C62.6108518,9.01096438 62.2258349,8.84897813 61.9409891,8.56413234 C61.6561433,8.27928655 61.494157,7.89426956 61.489705,7.49144435 Z M61.7379926,9.76027919 L64.3064848,9.76027919 L64.3064848,18.2363037 L61.7379926,18.2363037 L61.7379926,9.76027919 Z M75.2996317,13.9982914 C75.3283989,14.5619899 75.2454366,15.1258595 75.0554537,15.6573662 C74.8655566,16.1888729 74.5723204,16.6775713 74.1927828,17.0952938 C73.8131597,17.5131019 73.3547694,17.8516292 72.8438107,18.0915263 C72.3329376,18.3314235 71.7795987,18.4678961 71.215729,18.4931529 C70.7372189,18.5250022 70.2576814,18.4483755 69.8129898,18.2690092 C69.3682125,18.0895572 68.9697538,17.8120744 68.6472368,17.4571944 L68.6472368,21.6438368 L66.0787445,21.6438368 L66.0787445,9.76027919 L68.6472368,9.76027919 L68.6472368,10.5565118 C68.9701819,10.2026592 69.3689831,9.92646064 69.8137603,9.74854974 C70.2585376,9.57055323 70.7378182,9.49555325 71.215729,9.52911489 C71.7773727,9.55437173 72.3284855,9.69007374 72.8376463,9.9283442 C73.3468071,10.1666147 73.8040843,10.5029159 74.1832794,10.9178987 C74.5625601,11.3328814 74.85631,11.8184977 75.0478339,12.3470934 C75.2393578,12.8756035 75.3249742,13.4366478 75.2996317,13.9982914 Z M72.7311395,13.9982914 C72.7210367,13.6006032 72.5937251,13.2148157 72.3653006,12.8892165 C72.136876,12.5636173 71.8173555,12.31259 71.4468933,12.1678126 C71.0764311,12.0229496 70.6714655,11.9907579 70.2826814,12.07509 C69.8939829,12.1594222 69.538846,12.3566824 69.2617057,12.6420419 C68.9845654,12.9274014 68.797836,13.2881889 68.7249765,13.6792847 C68.6520313,14.0702948 68.6961237,14.4741474 68.8517744,14.8402432 C69.007425,15.2062534 69.2676133,15.5182395 69.5998049,15.7370751 C69.9319966,15.9559106 70.32138,16.0717496 70.7191539,16.0702085 C70.9915853,16.0817668 71.2634174,16.0356195 71.5167563,15.9347634 C71.7701809,15.8339072 71.999376,15.6806539 72.1893588,15.4850204 C72.3793417,15.2893869 72.5257457,15.0557397 72.6191532,14.7995754 C72.7125607,14.5433255 72.75066,14.2702948 72.7311395,13.9982914 Z M83.1164099,15.6934963 C83.1164099,17.6455505 81.4040817,18.4760296 79.5890138,18.4760296 C78.8486888,18.5426392 78.1054527,18.3857043 77.4552817,18.0255161 C76.8051107,17.6653279 76.2778848,17.1184102 75.9417548,16.4554824 L78.1506582,15.2054828 C78.2381581,15.5109622 78.4278841,15.7771436 78.688158,15.9595065 C78.9484319,16.1418695 79.2634146,16.2292838 79.5804522,16.2071948 C80.1883287,16.2071948 80.4965478,16.0188387 80.4965478,15.6763731 C80.4965478,14.7431542 76.3270287,15.2397294 76.3270287,12.3030865 C76.3270287,10.4537721 77.8852473,9.52911489 79.6489453,9.52911489 C80.3193218,9.49906353 80.9854175,9.65120389 81.5762563,9.96926885 C82.1671808,10.2873338 82.6609306,10.7595083 83.0051086,11.3356211 L80.7962052,12.5000043 C80.6986025,12.2791139 80.5391847,12.0912715 80.33713,11.9590798 C80.1349897,11.8268881 79.8989452,11.7560833 79.657507,11.7551415 C79.2123016,11.7551415 78.9468908,11.9263743 78.9468908,12.2260318 C78.9468908,13.2020588 83.1164099,12.5599358 83.1164099,15.6934963 Z M92.4229136,9.76027919 L92.4229136,18.2363037 L89.8544213,18.2363037 L89.8544213,17.4400711 C89.5624693,17.7925538 89.1917503,18.0714065 88.773086,18.2543687 C88.3535656,18.437331 87.8972302,18.5190947 87.4400385,18.4931529 C85.7277104,18.4931529 84.2636698,17.2688383 84.2636698,14.9828801 L84.2636698,9.76027919 L86.832162,9.76027919 L86.832162,14.5976063 C86.8116141,14.7998323 86.8355867,15.0040274 86.9023675,15.1961506 C86.9691483,15.3881882 87.0761688,15.5635306 87.2165797,15.7101059 C87.3578468,15.8565956 87.5290796,15.9708079 87.7182919,16.0448661 C87.9075041,16.1188387 88.110415,16.1508592 88.3133259,16.1387017 C89.2379831,16.1387017 89.8886678,15.5907566 89.8886678,14.4263735 L89.8886678,9.76027919 L92.4229136,9.76027919 Z M106.977703,13.030826 L106.977703,18.2363037 L104.409211,18.2363037 L104.409211,13.2534287 C104.409211,12.3972646 104.006814,11.8664429 103.193458,11.8664429 C102.380102,11.8664429 101.866403,12.4571961 101.866403,13.4589081 L101.866403,18.2363037 L99.2979112,18.2363037 L99.2979112,13.2534287 C99.2979112,12.3972646 98.8955141,11.8664429 98.0821582,11.8664429 C97.2688023,11.8664429 96.7551039,12.4571961 96.7551039,13.4589081 L96.7551039,18.2363037 L94.1866116,18.2363037 L94.1866116,9.76027919 L96.7551039,9.76027919 L96.7551039,10.5393885 C97.0213709,10.1952105 97.3681173,9.9226079 97.7662336,9.7462381 C98.1634938,9.5698683 98.5992813,9.49521079 99.0325003,9.52911489 C99.4665755,9.50642654 99.8997946,9.59717993 100.288493,9.79229973 C100.677192,9.98741952 101.008527,10.2803133 101.249965,10.6421282 C101.532499,10.2640461 101.905787,9.96370378 102.335581,9.76909768 C102.76452,9.57440597 103.237122,9.49187175 103.707156,9.52911489 C105.71058,9.52911489 106.977703,10.9161007 106.977703,13.030826 Z M109.135237,9.70890935 C110.175476,9.70890935 111.018798,8.86558772 111.018798,7.82534835 C111.018798,6.78510898 110.175476,5.94178735 109.135237,5.94178735 C108.094997,5.94178735 107.251676,6.78510898 107.251676,7.82534835 C107.251676,8.86558772 108.094997,9.70890935 109.135237,9.70890935 Z" id="Path-2"></path>
        </g>
    </g>
</svg>