<?xml version="1.0" encoding="UTF-8"?>
<svg width="123px" height="25px" viewBox="0 0 123 25" version="1.1" xmlns="http://www.w3.org/2000/svg" xmlns:xlink="http://www.w3.org/1999/xlink">
    <title>logo-2-black</title>
    <g id="logo-2-black" stroke="none" stroke-width="1" fill="none" fill-rule="evenodd">
        <g id="2" fill="#000000" fill-rule="nonzero">
            <path d="M19.8769103,9.7666408 C20.4146265,9.60913438 20.983445,9.5899108 21.5305917,9.71069292 C22.0777383,9.83147505 22.5855311,10.0884544 23.0069083,10.457783 C23.4282856,10.8271115 23.7496459,11.2968198 23.9411563,11.8233827 C24.1326667,12.3500363 24.1881612,12.9164065 24.1024711,13.4701726 C24.0168718,14.023848 23.7927176,14.5470559 23.4510456,14.9911025 C23.1093737,15.4351491 22.6610652,15.7857981 22.1478319,16.0104964 C21.6345078,16.2351946 21.0727621,16.326688 20.5147342,16.2765435 L20.5319629,16.2928654 C19.9607868,16.2446251 19.3860742,16.3217008 18.8477233,16.5185611 C18.309463,16.7153308 17.8206218,17.0273513 17.4152944,17.432588 C17.0100577,17.8379154 16.6980372,18.3267566 16.5011768,18.8650169 C16.3043165,19.4033678 16.2273315,19.978171 16.2755718,20.5492565 L16.2583431,20.5329346 C16.3225426,21.2160972 16.1744666,21.9023427 15.8343362,22.4982738 C15.4942057,23.0942048 14.9786148,23.5706232 14.3577475,23.8627854 C13.7368802,24.1548568 13.0411135,24.2484358 12.3651144,24.1305553 C11.6892061,24.0127656 11.0660719,23.6893197 10.5806764,23.2043777 C10.095281,22.7194356 9.77129109,22.0965735 9.6527759,21.4207558 C9.53435138,20.7448474 9.62729559,20.04899 9.91882301,19.4278507 C10.2103504,18.8067114 10.6864061,18.290667 11.2819744,17.9499925 C11.8776334,17.609318 12.5637883,17.460698 13.2469509,17.5242627 L13.230629,17.5079408 C13.8017145,17.5561811 14.3765177,17.4791054 14.914778,17.2822451 C15.4531289,17.0854754 15.9419701,16.7734549 16.3472975,16.3682182 C16.7525342,15.9628908 17.064464,15.4740496 17.2613244,14.9357893 C17.4581847,14.3974384 17.5352604,13.8227258 17.4870201,13.2515497 L17.503342,13.2678716 C17.4564619,12.7826575 17.517125,12.2930909 17.6810695,11.8339919 C17.845014,11.3749836 18.1081594,10.9576868 18.4518263,10.6119343 C18.8499902,10.2149492 19.3391941,9.9242379 19.8769103,9.7666408 Z M18.5007013,1.17123342 C19.12175,0.879234467 19.817698,0.785918487 20.4936971,0.904007498 C21.1696961,1.02208744 21.7928304,1.34584157 22.2780444,1.83108286 C22.7633492,2.31633321 23.087067,2.93944928 23.2051289,3.61545741 C23.3231907,4.29146553 23.2298837,4.98744079 22.9379029,5.60845316 C22.6459221,6.22947458 22.1695037,6.74531038 21.573482,7.08558591 C20.977551,7.42586144 20.2912147,7.57406437 19.6079615,7.50986486 L19.6251902,7.52618677 C19.054014,7.47797366 18.4793015,7.55498587 17.9409505,7.7518825 C17.4026903,7.94865218 16.9138491,8.26067267 16.5085217,8.66590939 C16.103285,9.07123681 15.7912645,9.56007798 15.5944041,10.0983383 C15.3976344,10.6366892 15.3205587,11.2114018 15.3687991,11.7825779 L15.3515704,11.766256 C15.4000827,12.2517421 15.340145,12.7418528 15.1760192,13.2013145 C15.011984,13.6607762 14.7477504,14.078073 14.4027234,14.4229187 C14.0576057,14.7677644 13.6401276,15.0315445 13.1805751,15.1953077 C12.7209321,15.3590708 12.2307307,15.4186458 11.7453353,15.3697708 L11.762564,15.3860927 C11.1913878,15.3378524 10.6166753,15.414928 10.0783243,15.6117884 C9.54006405,15.8085581 9.05122289,16.1205786 8.64589549,16.5258153 C8.24065876,16.9311427 7.92863827,17.4199839 7.73186859,17.9582441 C7.53500823,18.4965951 7.45793255,19.0713077 7.50617286,19.6424838 L7.48894418,19.6261619 C7.55314369,20.3094151 7.40497703,20.9957514 7.06466523,21.5917731 C6.7243897,22.1877041 6.20855391,22.6641225 5.58754154,22.9561033 C4.96652012,23.2480841 4.27054485,23.341391 3.59453673,23.2233292 C2.9185286,23.1052674 2.29541253,22.7815496 1.81016218,22.2962448 C1.3249209,21.8110307 1.00116677,21.1878965 0.883077751,20.5118975 C0.764988741,19.8358984 0.858313788,19.1399503 1.15031274,18.5189017 C1.44230262,17.8978531 1.91876635,17.3820808 2.51469737,17.041769 C3.11063747,16.7014572 3.79703721,16.5532905 4.48027232,16.61749 L4.46395041,16.6011681 C5.03504493,16.6492271 5.60974841,16.5720607 6.14797242,16.3752003 C6.68619643,16.1782493 7.1749832,15.8663195 7.58025619,15.4610828 C7.98549292,15.055846 8.29742273,14.5670049 8.49437377,14.0288353 C8.69123412,13.490575 8.76840048,12.9158624 8.72034153,12.344777 L8.73666344,12.3610989 C8.6881511,11.8756128 8.74808877,11.3855021 8.91212396,10.9260404 C9.07624981,10.4665787 9.3403927,10.0492819 9.68551039,9.70443619 C10.0306281,9.35959053 10.4481062,9.09571967 10.9076587,8.93204718 C11.3672111,8.76828403 11.8575031,8.70870907 12.3428985,8.75758411 L12.3265766,8.74035543 C12.8977527,8.78868642 13.472556,8.71179209 14.0109976,8.51502241 C14.5493486,8.31825273 15.0382804,8.00623224 15.4436078,7.60099552 C15.8488445,7.19563184 16.160865,6.70670906 16.3576347,6.16833997 C16.5544044,5.62997087 16.6312987,5.05513138 16.5829677,4.48396431 L16.5992896,4.50119299 C16.5350901,3.81795789 16.6832568,3.13155815 17.0235686,2.53562712 C17.3638804,1.93968702 17.8796527,1.4632233 18.5007013,1.17123342 Z M9.78380456,0.31673615 C10.4045812,0.0249185546 11.1003479,-0.0683158159 11.7760749,0.0497731947 C12.4518019,0.167853138 13.0747548,0.491498455 13.5597875,0.976567454 C14.0448202,1.46163645 14.3685381,2.08451676 14.4865999,2.76027099 C14.6046617,3.43602522 14.5114455,4.13174659 14.219646,4.75257759 C13.9277559,5.37339953 13.4516095,5.88910838 12.8559505,6.2293567 C12.2602915,6.5696141 11.5741366,6.71786237 10.8911554,6.65387142 L10.9083841,6.67019333 C10.3371173,6.62169912 9.76213269,6.69850277 9.22360037,6.89523618 C8.68506807,7.09196052 8.19604554,7.40388126 7.79053679,7.80919053 C7.38502803,8.21451794 7.07288966,8.70344978 6.87592955,9.24189143 C6.67896945,9.78033307 6.60193004,10.3553176 6.65017035,10.9265845 L6.63295074,10.9102625 C6.68021173,11.3953859 6.6197844,11.8850432 6.45598498,12.3441422 C6.29218555,12.8032413 6.02905825,13.2205381 5.68537325,13.5661998 C5.29177042,13.9631849 4.80256654,14.2538963 4.26488659,14.4114934 C3.72719758,14.5689998 3.15844253,14.588314 2.61132307,14.4676226 C2.06419455,14.3468405 1.55640183,14.0899517 1.13499735,13.7206232 C0.713592863,13.3513854 0.39220541,12.8817678 0.200631539,12.3552049 C0.00905766771,11.8287326 -0.0465184319,11.2623624 0.0390537091,10.7085963 C0.124634918,10.1549209 0.348589643,9.63171302 0.690179992,9.18766642 C1.03177034,8.74352914 1.47994276,8.39278945 1.99315798,8.1680005 C2.5063732,7.94321154 3.06803729,7.85153682 3.62609242,7.90159067 L3.60977051,7.88526876 C4.1809013,7.93350907 4.75566826,7.85643339 5.29396481,7.65957303 C5.83226136,7.46276708 6.32112067,7.15081007 6.72640273,6.74551894 C7.13169387,6.3402278 7.44360554,5.85137757 7.6404659,5.31308101 C7.83732626,4.77478446 7.91440194,4.20000844 7.86616163,3.62887764 L7.88248354,3.64519955 C7.81846538,2.96220021 7.96672272,2.27608157 8.30703452,1.68042257 C8.64725565,1.08476357 9.16293728,0.608553745 9.78380456,0.31673615 Z M33.7744716,4.52204877 L36.4675866,4.52204877 L36.4675866,17.6276348 L33.7744716,17.6276348 L33.7744716,4.52204877 Z M37.9927783,13.1400167 C37.9890605,12.1982425 38.2649008,11.2764174 38.7853883,10.4915149 C39.3058758,9.70661245 40.0476159,9.09381545 40.9166669,8.73083432 C41.7857179,8.36776252 42.7429071,8.27082852 43.6670899,8.45227374 C44.5912726,8.63371896 45.440828,9.08529178 46.108122,9.74995618 C46.7754161,10.4145299 47.2304346,11.2622717 47.4155976,12.185729 C47.6007606,13.1091864 47.507635,14.066829 47.1480997,14.9373308 C46.7885643,15.807742 46.1787596,16.552021 45.3959427,17.0755916 C44.6130352,17.5992528 43.6924795,17.8788109 42.7506147,17.8788109 C42.1254856,17.8859744 41.5051624,17.7683659 40.925916,17.5329677 C40.3466696,17.2975695 39.8201973,16.9490968 39.3772389,16.5079519 C38.9341897,16.0667163 38.5836314,15.5416042 38.3459662,14.9633552 C38.1082104,14.3851063 37.9881537,13.7652364 37.9927783,13.1400167 Z M44.8153362,13.1400167 C44.8040922,12.7340545 44.6734262,12.3404245 44.4397509,12.0082736 C44.2059849,11.6762135 43.8795467,11.4203222 43.5012412,11.2727903 C43.1228449,11.1251677 42.7094472,11.0923425 42.3125528,11.1784859 C41.9156584,11.2646293 41.5529493,11.4657515 41.2697642,11.7569162 C40.9866697,12.0479903 40.7955221,12.41614 40.720532,12.8153013 C40.6454512,13.214372 40.689611,13.6267722 40.8476615,14.0009067 C41.005712,14.3750411 41.2704896,14.6942251 41.6088972,14.9186513 C41.9473954,15.1430776 42.3445619,15.2627716 42.7506147,15.2627716 C43.0287219,15.2702071 43.3053783,15.2198812 43.5631737,15.1150583 C43.8208785,15.0102354 44.0541005,14.8531823 44.2480592,14.653783 C44.4420179,14.454293 44.5926328,14.2168092 44.6902015,13.9562934 C44.787861,13.6957776 44.8304793,13.4178518 44.8153362,13.1400167 Z M58.2419198,8.65149171 L58.2419198,17.1751552 C58.2419198,20.1910813 55.8897513,21.4660037 53.5022188,21.4660037 C52.6616405,21.5289337 51.8198834,21.3590952 51.0693476,20.9752583 C50.3189025,20.5913308 49.6886048,20.0081852 49.2476412,19.2897492 L51.5454033,17.9613272 C51.7307476,18.3358243 52.0260835,18.6447618 52.3917849,18.8468814 C52.757577,19.0489104 53.1763247,19.1345097 53.5919893,19.0920727 C53.8576737,19.1288877 54.1282547,19.105493 54.3836925,19.0236114 C54.6390397,18.9417298 54.8728057,18.803447 55.0675805,18.6191001 C55.2623553,18.4346625 55.4131516,18.2088761 55.5089068,17.9582441 C55.6045713,17.7077028 55.6426558,17.4388447 55.6204398,17.1715281 L55.6204398,16.3508988 C55.3050643,16.7367306 54.9037267,17.0433105 54.4484361,17.2459742 C53.9931455,17.4486379 53.4967781,17.5417634 52.9989599,17.5179153 C51.8145334,17.4805563 50.6911327,16.9838262 49.8665136,16.1327293 C49.0418945,15.2817231 48.5808005,14.1431793 48.5808005,12.9582087 C48.5808005,11.7732381 49.0418945,10.6346943 49.8665136,9.78368813 C50.6911327,8.93259125 51.8145334,8.43586116 52.9989599,8.39850212 C53.4967781,8.374654 53.9931455,8.46777955 54.4484361,8.67044326 C54.9037267,8.87310696 55.3050643,9.17968682 55.6204398,9.56551861 L55.6204398,8.64967816 L58.2419198,8.65149171 Z M55.6213466,12.9595609 C55.6394821,12.5255875 55.5272236,12.0960492 55.2991703,11.726358 C55.0711169,11.3565761 54.7376059,11.0635978 54.3416183,10.8850543 C53.9456306,10.70642 53.5053018,10.6504722 53.0772144,10.7242835 C52.649127,10.7980948 52.252958,10.9983102 51.9395774,11.299268 C51.6262874,11.6001352 51.4102034,11.9878712 51.3190728,12.4126036 C51.2280328,12.8373359 51.2661173,13.2796596 51.4286109,13.6825388 C51.5910139,14.0854179 51.8702999,14.4305356 52.23047,14.6733693 C52.5906402,14.916203 53.0152818,15.0456902 53.449626,15.0451461 C53.7326297,15.0649138 54.0165403,15.0251971 54.2832221,14.9285352 C54.549904,14.8318732 54.7933724,14.6803515 54.9979404,14.4839445 C55.2025083,14.2874468 55.3637325,14.0503258 55.4710944,13.7877244 C55.5784563,13.5252137 55.6296889,13.2431167 55.6213466,12.9595609 Z M59.7671115,13.1400167 C59.7633937,12.1982425 60.0391433,11.2764174 60.5597215,10.4915149 C61.080209,9.70661245 61.8219491,9.09381545 62.6910001,8.73083432 C63.560051,8.36776252 64.5172403,8.27082852 65.4414231,8.45227374 C66.3656058,8.63371896 67.2151612,9.08529178 67.8824552,9.74995618 C68.5497493,10.4145299 69.0047678,11.2622717 69.1899308,12.185729 C69.3750938,13.1091864 69.2819682,14.066829 68.9224328,14.9373308 C68.5628975,15.807742 67.9530928,16.552021 67.1702759,17.0755916 C66.3873684,17.5992528 65.4668127,17.8788109 64.5249479,17.8788109 C63.8998188,17.8859744 63.2794049,17.7683659 62.7002492,17.5329677 C62.1210027,17.2975695 61.5945305,16.9490968 61.151572,16.5079519 C60.7085229,16.0667163 60.3579646,15.5416042 60.1202994,14.9633552 C59.8825436,14.3851063 59.7624869,13.7652364 59.7671115,13.1400167 Z M66.5896694,13.1400167 C66.5784254,12.7340545 66.4477594,12.3404245 66.2140841,12.0082736 C65.9803181,11.6762135 65.6538799,11.4203222 65.2755743,11.2727903 C64.8971781,11.1251677 64.4836897,11.0923425 64.086886,11.1784859 C63.6899916,11.2646293 63.3272825,11.4657515 63.0440974,11.7569162 C62.7610029,12.0479903 62.5698552,12.41614 62.4947745,12.8153013 C62.4196937,13.214372 62.4639442,13.6267722 62.6219947,14.0009067 C62.7800452,14.3750411 63.0448228,14.6942251 63.3832304,14.9186513 C63.7217286,15.1430776 64.1188044,15.2627716 64.5249479,15.2627716 C64.8030551,15.2702071 65.0797114,15.2198812 65.3374162,15.1150583 C65.5952117,15.0102354 65.8284337,14.8531823 66.0223924,14.653783 C66.216351,14.454293 66.366966,14.2168092 66.4645347,13.9562934 C66.5621941,13.6957776 66.6048125,13.4178518 66.5896694,13.1400167 Z M70.5386645,6.2458237 C70.5386645,5.92623165 70.6334223,5.61382125 70.8109684,5.34810057 C70.9885145,5.08237083 71.24096,4.87525487 71.5362052,4.75295844 C71.8314504,4.63065293 72.1563471,4.59865293 72.4698184,4.66100262 C72.783199,4.72335231 73.07119,4.87724977 73.2971578,5.10323567 C73.5231256,5.3292125 73.6770049,5.61713097 73.7393909,5.93058416 C73.8016861,6.24402829 73.7696771,6.56892495 73.6474441,6.86418828 C73.5251205,7.15945161 73.3180136,7.41181553 73.0522385,7.58938883 C72.7865541,7.76693492 72.4741709,7.86169267 72.1545335,7.86169267 C71.7273529,7.85743084 71.3187611,7.68586944 71.0166244,7.38371464 C70.7145784,7.08159611 70.5429264,6.67305873 70.5386645,6.2458237 Z M70.8106963,8.65149171 L73.5047181,8.65149171 L73.5047181,17.6285416 L70.8070693,17.6285416 L70.8106963,8.65149171 Z M85.1331714,13.1400167 C85.1642737,13.733318 85.0778582,14.3268915 84.8787309,14.8866423 C84.6796943,15.446393 84.3719357,15.9612586 83.973137,16.4016781 C83.5744291,16.8420069 83.0924794,17.1992754 82.5552165,17.452809 C82.017863,17.706252 81.4358056,17.8510636 80.8423229,17.8788109 C80.3432352,17.906014 79.8444195,17.8218655 79.3818747,17.6324407 C78.91933,17.4429252 78.5048442,17.1529393 78.1682501,16.7834294 L78.1682501,21.2184548 L75.4751352,21.2184548 L75.4751352,8.65149171 L78.1682501,8.65149171 L78.1682501,9.49479034 C78.5049349,9.12555249 78.919602,8.83574792 79.3820561,8.64650446 C79.8446009,8.45717031 80.3433259,8.37311248 80.8423229,8.40031567 C81.4358963,8.42797223 82.0181351,8.57269316 82.5555792,8.82622681 C83.0930234,9.07976047 83.5749731,9.43702892 83.9737718,9.8775391 C84.3725704,10.3180493 84.6803291,10.8330962 84.879275,11.3930283 C85.0782209,11.9528698 85.1645457,12.5466246 85.1331714,13.1400167 Z M82.4400564,13.1400167 C82.4295378,12.7199089 82.2953355,12.3122238 82.0542246,11.9679222 C81.8131138,11.6237113 81.475885,11.3582083 81.0847032,11.2047823 C80.6934308,11.0512657 80.2656154,11.0165363 79.8547567,11.1050373 C79.443898,11.1934477 79.0683127,11.4010986 78.7748811,11.7019658 C78.4814494,12.0029237 78.2833196,12.3835869 78.2052465,12.7966218 C78.1271733,13.2095661 78.1726027,13.6362934 78.3359124,14.023576 C78.4991315,14.4108586 78.7730675,14.7412866 79.1232632,14.9736924 C79.4734588,15.2060076 79.8843175,15.3299634 80.3046067,15.3298728 C80.5931417,15.3427489 80.8811328,15.2944179 81.1497188,15.1881442 C81.4182142,15.0819611 81.66132,14.9201022 81.8628956,14.713358 C82.0645618,14.5065231 82.220164,14.2595182 82.319637,13.9883932 C82.41911,13.7172682 82.4601868,13.4280983 82.4400564,13.1400167 Z M93.4437434,14.9345199 C93.4437434,16.9992413 91.6492402,17.8788109 89.71056,17.8788109 C88.9271084,17.9497205 88.1406644,17.7841438 87.4525146,17.4032086 C86.7643648,17.022364 86.2063369,16.443843 85.8504286,15.7424543 L88.1835548,14.4140323 C88.2779498,14.7382036 88.4807042,15.0203006 88.7579046,15.2129898 C89.0350144,15.4057696 89.3705203,15.4976257 89.7069329,15.4731428 C90.3525551,15.4731428 90.676273,15.2754664 90.676273,14.9172912 C90.676273,13.9289089 86.2593831,14.4503032 86.2593831,11.3446067 C86.2593831,9.38688439 87.911523,8.40031567 89.778568,8.40031567 C90.4804101,8.37809973 91.1749981,8.5445832 91.7906967,8.88235604 C92.4063954,9.22021956 92.9205355,9.71694966 93.2787107,10.3208603 L90.9809487,11.5595118 C90.8802969,11.3243856 90.712544,11.1240796 90.4985455,10.9836205 C90.2845472,10.8431614 90.0342779,10.768806 89.778568,10.7697128 C89.31158,10.7697128 89.0241331,10.9510673 89.0241331,11.2720649 C89.0277602,12.2958113 93.4437434,11.6130114 93.4437434,14.9345199 Z M103.281321,8.65149171 L103.281321,17.6285416 L100.588206,17.6285416 L100.588206,16.7843362 C100.277183,17.1568384 99.8827364,17.4503607 99.4366043,17.640783 C98.9904721,17.8312053 98.5062554,17.9130869 98.0220388,17.8797176 C96.2084934,17.8797176 94.6669798,16.5875665 94.6669798,14.1619495 L94.6669798,8.65149171 L97.3600947,8.65149171 L97.3600947,13.7675034 C97.3374254,13.9813204 97.3619083,14.197495 97.4317298,14.4008841 C97.5006445,14.6043639 97.6139911,14.7902523 97.7627018,14.9455825 C97.9114125,15.1009126 98.0918603,15.2219668 98.2922571,15.3004026 C98.4917471,15.3788385 98.7066522,15.4127518 98.9215573,15.3996943 C99.9090328,15.3996943 100.590926,14.8257071 100.590926,13.5507847 L100.590926,8.65421202 L103.281321,8.65149171 Z M118.72366,12.1162703 L118.72366,17.6276348 L116.030545,17.6276348 L116.030545,12.3493108 C116.030545,11.4516059 115.599828,10.8776187 114.738394,10.8776187 C113.840689,10.8776187 113.33743,11.5060122 113.33743,12.5651228 L113.33743,17.6276348 L110.645222,17.6276348 L110.645222,12.3493108 C110.645222,11.4516059 110.214505,10.8776187 109.352164,10.8776187 C108.454459,10.8776187 107.952107,11.5060122 107.952107,12.5651228 L107.952107,17.6276348 L105.258992,17.6276348 L105.258992,8.65058493 L107.952107,8.65058493 L107.952107,9.47574811 C108.231393,9.10968397 108.597729,8.81933534 109.017565,8.63136135 C109.438307,8.44329669 109.898948,8.36359137 110.357775,8.39940889 C110.818415,8.37683025 111.277242,8.47412696 111.689824,8.68168724 C112.101499,8.88915684 112.45242,9.19999853 112.709036,9.58365407 C113.007365,9.18222579 113.402718,8.86304178 113.857917,8.65593489 C114.313117,8.44882801 114.813656,8.36059902 115.312381,8.39940889 C117.373475,8.40031567 118.72366,9.87200779 118.72366,12.1162703 Z M121.001473,8.59617857 C122.105015,8.59617857 123,7.70137526 123,6.59765151 C123,5.49389149 122.105015,4.59912445 121.001473,4.59912445 C119.897931,4.59912445 119.002946,5.49389149 119.002946,6.59765151 C119.002946,7.70137526 119.897931,8.59617857 121.001473,8.59617857 Z" id="Path-2"></path>
        </g>
    </g>
</svg>