<?xml version="1.0" encoding="UTF-8"?>
<svg width="132px" height="35px" viewBox="0 0 132 35" version="1.1" xmlns="http://www.w3.org/2000/svg" xmlns:xlink="http://www.w3.org/1999/xlink">
    <title>ycode-logo-black</title>
    <g id="ycode-logo-black" stroke="none" stroke-width="1" fill="none" fill-rule="evenodd">
        <g id="4" fill="#000000" fill-rule="nonzero">
            <path d="M15.160949,0 L15.160949,8.488471 L7.339,13.01 L16.886,18.526 L32,9.78118 L32,18.277589 L3.528174,34.751542 L3.492259,34.772309 L3.452863,34.747267 L0,32.557511 L0,24.285054 L3.483281,26.281091 L9.442,22.833 L0,17.254324 L0,8.77096 L15.160949,0 Z M44.789144,33 L47.544885,26.361169 L41,10.23382 L44.977035,10.23382 L49.392484,22.008351 L53.870564,10.23382 L57.753653,10.23382 L48.484342,33 L44.789144,33 Z M58.536534,18.375783 C58.536534,15.974936 59.298531,13.955123 60.822547,12.316284 C62.346563,10.677445 64.288088,9.858038 66.647182,9.858038 C68.881013,9.858038 70.660745,10.489555 71.98643,11.75261 C73.312115,13.015664 74.100208,14.471808 74.350731,16.121086 L70.530271,16.121086 C70.300625,15.223378 69.83612,14.503134 69.136743,13.960334 C68.437366,13.417534 67.597082,13.146138 66.615866,13.146138 C65.30062,13.146138 64.246351,13.631519 63.453027,14.602296 C62.659704,15.573074 62.263048,16.83089 62.263048,18.375783 C62.263048,19.920676 62.659704,21.173273 63.453027,22.133612 C64.246351,23.093951 65.30062,23.574113 66.615866,23.574113 C67.597082,23.574113 68.437366,23.302717 69.136743,22.759916 C69.83612,22.217116 70.300625,21.496873 70.530271,20.599165 L74.350731,20.599165 C74.100208,22.248442 73.312115,23.704587 71.98643,24.967641 C70.660745,26.230695 68.881013,26.862213 66.647182,26.862213 C64.288088,26.862213 62.346563,26.042806 60.822547,24.403967 C59.298531,22.765128 58.536534,20.755753 58.536534,18.375783 Z M84.68476,26.862213 C82.179528,26.862213 80.149277,26.037587 78.593946,24.388309 C77.038614,22.739031 76.26096,20.734876 76.26096,18.375783 C76.26096,16.01669 77.038614,14.007315 78.593946,12.347599 C80.149277,10.687883 82.179528,9.858038 84.68476,9.858038 C87.210869,9.858038 89.251558,10.687883 90.806889,12.347599 C92.362221,14.007315 93.139875,16.01669 93.139875,18.375783 C93.139875,20.734876 92.362221,22.739031 90.806889,24.388309 C89.251558,26.037587 87.210869,26.862213 84.68476,26.862213 Z M79.987474,18.375783 C79.987474,19.920676 80.431102,21.173273 81.318372,22.133612 C82.205641,23.093951 83.327759,23.574113 84.68476,23.574113 C86.062637,23.574113 87.195194,23.093951 88.082463,22.133612 C88.969733,21.173273 89.413361,19.920676 89.413361,18.375783 C89.413361,16.810013 88.969733,15.546978 88.082463,14.586639 C87.195194,13.6263 86.062637,13.146138 84.68476,13.146138 C83.327759,13.146138 82.205641,13.6263 81.318372,14.586639 C80.431102,15.546978 79.987474,16.810013 79.987474,18.375783 Z M108.23382,12.363257 L108.23382,3 L111.960334,3 L111.960334,26.48643 L108.515658,26.48643 L108.515658,24.169102 C107.40918,25.964518 105.582476,26.862213 103.035491,26.862213 C100.718151,26.862213 98.886228,26.053244 97.539666,24.435282 C96.193104,22.81732 95.519833,20.797507 95.519833,18.375783 C95.519833,15.954059 96.193104,13.929027 97.539666,12.300626 C98.886228,10.672226 100.718151,9.858038 103.035491,9.858038 C105.394584,9.858038 107.127343,10.693102 108.23382,12.363257 Z M108.390397,18.375783 C108.390397,16.851767 107.978083,15.59917 107.153445,14.617954 C106.328806,13.636738 105.217126,13.146138 103.818372,13.146138 C102.440494,13.146138 101.334033,13.636738 100.498956,14.617954 C99.663879,15.59917 99.246347,16.851767 99.246347,18.375783 C99.246347,19.858045 99.663879,21.094985 100.498956,22.086639 C101.334033,23.078293 102.440494,23.574113 103.818372,23.574113 C105.217126,23.574113 106.328806,23.083512 107.153445,22.102296 C107.978083,21.121081 108.390397,19.878922 108.390397,18.375783 Z M123.515658,9.858038 C125.895628,9.858038 127.821496,10.656568 129.293319,12.253653 C130.765143,13.850739 131.501044,15.860113 131.501044,18.281837 L131.469729,19.440501 L119.100209,19.440501 C119.246347,20.734871 119.716071,21.763044 120.509395,22.525052 C121.302718,23.28706 122.346549,23.668058 123.640919,23.668058 C124.496873,23.668058 125.269308,23.459292 125.958246,23.041754 C126.647185,22.624215 127.137786,22.060546 127.430063,21.350731 L131.187891,21.350731 C130.686845,23.000008 129.752616,24.330893 128.385177,25.343424 C127.017738,26.355955 125.40502,26.862213 123.546973,26.862213 C121.125249,26.862213 119.168066,26.058463 117.675365,24.450939 C116.182665,22.843416 115.436326,20.807946 115.436326,18.344468 C115.436326,15.943621 116.187884,13.929027 117.691023,12.300626 C119.194162,10.672226 121.135687,9.858038 123.515658,9.858038 Z M123.515658,12.895616 C122.346549,12.895616 121.375787,13.24008 120.60334,13.929019 C119.830894,14.617958 119.350732,15.536529 119.162839,16.68476 L127.805846,16.68476 C127.63883,15.536529 127.179544,14.617958 126.427975,13.929019 C125.676405,13.24008 124.705643,12.895616 123.515658,12.895616 Z" id="ycode-filled"></path>
        </g>
    </g>
</svg>